# xmcd
#
# Track frame offsets:
#	150
#	11539
#	28295
#	42445
#	56929
#	68776
#	80870
#	95579
#	107605
#	116816
#	133900
#	147428
#	155978
#	170302
#
# Disc length: 2441 seconds
# Revision: 0
# Processed by: cddbd v1.5.2PL0 Copyright (c) Steve Scherf et al.
# Submitted via: dBpowerAMP V12.0
#
DISCID=d509870e
DTITLE=Jimmy Gaudreau and Moondi Klein - Home from the Mills
DYEAR=2012
DGENRE=Country
TTITLE0=Bending Blades
TTITLE1=Leaving Nancy
TTITLE2=Rod McNeil
TTITLE3=Whiskey Before Breakfast - Red Haired Boy
TTITLE4=Close the Door Lightly When You Go
TTITLE5=Home from the Mills
TTITLE6=Shadows
TTITLE7=C&O Canal
TTITLE8=Fisher's Hornpipe
TTITLE9=If I Needed You
TTITLE10=I'd Rather Live by the Side of the Road
TTITLE11=Enferment les Yeux
TTITLE12=New Morning
TTITLE13=It's a Sin to Tell a Lie
EXTD=
EXTT0=
EXTT1=
EXTT2=
EXTT3=
EXTT4=
EXTT5=
EXTT6=
EXTT7=
EXTT8=
EXTT9=
EXTT10=
EXTT11=
EXTT12=
EXTT13=
PLAYORDER=
